<svg width="817" height="817" viewBox="0 0 817 817" fill="none" xmlns="http://www.w3.org/2000/svg">
<mask id="mask0_834_1331" style="mask-type:luminance" maskUnits="userSpaceOnUse" x="25" y="176" width="268" height="464">
<path d="M25.7266 176.984H292.98V639.868H25.7266V176.984Z" fill="white"/>
</mask>
<g mask="url(#mask0_834_1331)">
<mask id="mask1_834_1331" style="mask-type:luminance" maskUnits="userSpaceOnUse" x="25" y="17" width="766" height="783">
<path d="M781.557 337.254H416.98V488.408H626.835C607.271 584.435 525.465 639.562 416.98 639.562C288.934 639.562 185.785 536.422 185.785 408.384C185.785 280.348 288.934 177.208 416.98 177.208C472.112 177.208 521.908 196.77 561.032 228.778L674.851 114.97C605.493 54.5075 516.573 17.1641 416.98 17.1641C200.012 17.1641 25.7266 191.435 25.7266 408.384C25.7266 625.335 200.012 799.606 416.98 799.606C612.606 799.606 790.449 657.344 790.449 408.384C790.449 385.267 786.892 360.37 781.557 337.254Z" fill="white"/>
</mask>
<g mask="url(#mask1_834_1331)">
<path d="M-9.84375 639.565V177.211L292.488 408.387L-9.84375 639.565Z" fill="#DFAC53"/>
</g>
</g>
<mask id="mask2_834_1331" style="mask-type:luminance" maskUnits="userSpaceOnUse" x="25" y="16" width="766" height="393">
<path d="M25.7266 16.8828H790.449V408.428H25.7266V16.8828Z" fill="white"/>
</mask>
<g mask="url(#mask2_834_1331)">
<mask id="mask3_834_1331" style="mask-type:luminance" maskUnits="userSpaceOnUse" x="25" y="17" width="766" height="783">
<path d="M781.557 337.262H416.98V488.416H626.835C607.271 584.443 525.465 639.57 416.98 639.57C288.934 639.57 185.785 536.429 185.785 408.392C185.785 280.356 288.934 177.216 416.98 177.216C472.112 177.216 521.908 196.778 561.032 228.786L674.851 114.977C605.493 54.5153 516.573 17.1719 416.98 17.1719C200.012 17.1719 25.7266 191.443 25.7266 408.392C25.7266 625.343 200.012 799.614 416.98 799.614C612.606 799.614 790.449 657.351 790.449 408.392C790.449 385.275 786.892 360.378 781.557 337.262Z" fill="white"/>
</mask>
<g mask="url(#mask3_834_1331)">
<path d="M-9.84375 177.213L292.488 408.389L416.977 299.915L843.798 230.561V-18.3984H-9.84375V177.213Z" fill="#EF4343"/>
</g>
</g>
<mask id="mask4_834_1331" style="mask-type:luminance" maskUnits="userSpaceOnUse" x="25" y="16" width="766" height="784">
<path d="M25.7266 16.8828H790.449V799.61H25.7266V16.8828Z" fill="white"/>
</mask>
<g mask="url(#mask4_834_1331)">
<mask id="mask5_834_1331" style="mask-type:luminance" maskUnits="userSpaceOnUse" x="25" y="17" width="766" height="783">
<path d="M781.557 337.262H416.98V488.416H626.835C607.271 584.443 525.465 639.57 416.98 639.57C288.934 639.57 185.785 536.429 185.785 408.392C185.785 280.356 288.934 177.216 416.98 177.216C472.112 177.216 521.908 196.778 561.032 228.786L674.851 114.977C605.493 54.5153 516.573 17.1719 416.98 17.1719C200.012 17.1719 25.7266 191.443 25.7266 408.392C25.7266 625.343 200.012 799.614 416.98 799.614C612.606 799.614 790.449 657.351 790.449 408.392C790.449 385.275 786.892 360.378 781.557 337.262Z" fill="white"/>
</mask>
<g mask="url(#mask5_834_1331)">
<path d="M-9.84375 639.567L523.683 230.561L664.178 248.345L843.798 -18.3984V835.178H-9.84375V639.567Z" fill="#6EA06E"/>
</g>
</g>
<mask id="mask6_834_1331" style="mask-type:luminance" maskUnits="userSpaceOnUse" x="221" y="176" width="570" height="624">
<path d="M221.094 176.984H790.445V799.608H221.094V176.984Z" fill="white"/>
</mask>
<g mask="url(#mask6_834_1331)">
<mask id="mask7_834_1331" style="mask-type:luminance" maskUnits="userSpaceOnUse" x="25" y="17" width="766" height="783">
<path d="M781.557 337.254H416.98V488.408H626.835C607.271 584.435 525.465 639.562 416.98 639.562C288.934 639.562 185.785 536.422 185.785 408.384C185.785 280.348 288.934 177.208 416.98 177.208C472.112 177.208 521.908 196.77 561.032 228.778L674.851 114.97C605.493 54.5075 516.573 17.1641 416.98 17.1641C200.012 17.1641 25.7266 191.435 25.7266 408.384C25.7266 625.335 200.012 799.606 416.98 799.606C612.606 799.606 790.449 657.344 790.449 408.384C790.449 385.267 786.892 360.37 781.557 337.254Z" fill="white"/>
</mask>
<g mask="url(#mask7_834_1331)">
<path d="M843.799 835.176L292.488 408.387L221.352 355.04L843.799 177.211V835.176Z" fill="#4C79AE"/>
</g>
</g>
</svg>
