<svg width="24" height="24" viewBox="0 0 24 24" fill="none" xmlns="http://www.w3.org/2000/svg">
<path d="M11 2H13V5H11V2Z" fill="currentColor"/>
<path d="M11 19H13V22H11V19Z" fill="currentColor"/>
<path d="M2 11H5V13H2V11Z" fill="currentColor"/>
<path d="M19 11H22V13H19V11Z" fill="currentColor"/>
<path d="M4.22 5.64L5.64 4.22L7.76 6.34L6.34 7.76L4.22 5.64Z" fill="currentColor"/>
<path d="M16.24 17.66L17.66 16.24L19.78 18.36L18.36 19.78L16.24 17.66Z" fill="currentColor"/>
<path d="M16.24 6.34L18.36 4.22L19.78 5.64L17.66 7.76L16.24 6.34Z" fill="currentColor"/>
<path d="M4.22 18.36L6.34 16.24L7.76 17.66L5.64 19.78L4.22 18.36Z" fill="currentColor"/>
<path d="M12 7C9.24 7 7 9.24 7 12C7 14.76 9.24 17 12 17C14.76 17 17 14.76 17 12C17 9.24 14.76 7 12 7ZM12 9C13.66 9 15 10.34 15 12C15 13.66 13.66 15 12 15C10.34 15 9 13.66 9 12C9 10.34 10.34 9 12 9Z" fill="currentColor"/>
</svg>
