<svg width="354" height="65" viewBox="0 0 354 65" fill="none" xmlns="http://www.w3.org/2000/svg">
<path d="M214.617 64.2819V3H253.056V17.4054H232.003V27.9382H251.463V42.3436H232.003V64.2819H214.617Z" fill="#EF4343"/>
<path d="M324.649 41.4286V64.2819H308.38V21.3205H323.823V30.0579H324.295C325.277 27.1454 327.006 24.8613 329.482 23.2056C331.977 21.5499 334.885 20.722 338.206 20.722C341.408 20.722 344.188 21.4701 346.546 22.9662C348.923 24.4424 350.761 26.4772 352.057 29.0705C353.374 31.6638 354.022 34.6261 354.002 37.9575V64.2819H337.734V41.4286C337.754 39.1544 337.184 37.369 336.025 36.0724C334.885 34.7757 333.294 34.1274 331.25 34.1274C329.914 34.1274 328.745 34.4266 327.743 35.0251C326.761 35.6036 326.004 36.4414 325.474 37.5386C324.943 38.6158 324.668 39.9125 324.649 41.4286Z" fill="#EF4343"/>
<path d="M271.356 64.2819C268.468 64.2819 266.914 63.8031 264.694 62.8456C262.493 61.8681 260.764 60.3919 259.507 58.417C258.249 56.4421 256.621 53.9286 256.621 50.8764C256.621 48.3629 258.043 46.2185 258.888 44.443C259.733 42.6477 260.912 41.1815 262.424 40.0444C263.937 38.9073 265.696 38.0396 267.7 37.4411C269.724 36.8427 270.904 36.4537 273.243 36.2741C275.777 36.0746 277.811 36.8353 279.343 36.556C280.895 36.2568 282.015 35.8478 282.703 35.3291C283.391 34.7905 283.734 34.0824 283.734 33.2046V33.0849C283.734 31.888 283.283 31.9704 282.379 31.332C281.475 30.6937 280.316 30.3745 278.901 30.3745C277.349 30.3745 276.082 30.7236 275.099 31.4218C274.137 32.1001 273.557 32.1474 273.36 33.5637H260.389C260.585 30.7709 260.46 29.1976 262.012 26.8436C263.584 24.4698 264.873 22.5746 267.879 21.1583C270.885 19.722 274.638 19.0039 279.137 19.0039C282.379 19.0039 285.287 19.3929 287.861 20.1708C290.434 20.9289 292.625 21.9961 294.433 23.3726C296.24 24.7291 297.616 26.325 298.559 28.1602C299.522 29.9755 300.003 30.9504 300.003 33.0849V63.5637H284.795V57.1004H284.442C283.538 58.816 282.438 60.2024 281.141 61.2597C279.864 62.3169 278.4 63.0849 276.75 63.5637C275.119 64.0425 273.321 64.2819 271.356 64.2819ZM276.661 53.8687C277.899 53.8687 279.058 53.6094 280.139 53.0907C281.239 52.5721 282.133 51.824 282.821 50.8465C283.509 49.869 283.852 48.6821 283.852 47.2857V43.4556C283.42 43.6351 282.958 43.8047 282.467 43.9643C281.996 44.1239 281.485 44.2735 280.935 44.4131C280.404 44.5528 279.834 44.6824 279.225 44.8021C278.636 44.9218 278.017 45.0315 277.369 45.1313C276.111 45.3308 275.08 45.6599 274.274 46.1187C273.488 46.5576 272.899 47.1062 272.506 47.7645C272.132 48.4028 271.946 49.121 271.946 49.9189C271.946 51.1956 272.388 52.1731 273.272 52.8513C274.156 53.5296 275.286 53.8687 276.661 53.8687Z" fill="#EF4343"/>
<path d="M0 64.2819V3H26.1709C30.7685 3 34.6293 3.62838 37.7533 4.88514C40.8969 6.14189 43.2645 7.91731 44.856 10.2114C46.4671 12.5055 47.2726 15.2085 47.2726 18.3205C47.2726 20.5746 46.7814 22.6293 45.7991 24.4846C44.8363 26.3398 43.4806 27.8958 41.732 29.1525C39.9833 30.3893 37.9399 31.2471 35.6018 31.7259V32.3243C38.1954 32.4241 40.5531 33.0923 42.6751 34.3292C44.797 35.546 46.4867 37.2317 47.7442 39.3861C49.0016 41.5206 49.6304 44.0341 49.6304 46.9266C49.6304 50.278 48.7659 53.2603 47.0369 55.8736C45.3275 58.4868 42.8912 60.5415 39.7279 62.0376C36.5646 63.5338 32.7922 64.2819 28.4107 64.2819H0ZM16.3863 50.9961H24.0489C26.7996 50.9961 28.8626 50.4775 30.238 49.4402C31.6133 48.3829 32.301 46.8269 32.301 44.7722C32.301 43.3359 31.9768 42.119 31.3284 41.1216C30.6801 40.1242 29.7566 39.3662 28.5581 38.8475C27.3792 38.3288 25.9548 38.0695 24.2847 38.0695H16.3863V50.9961ZM16.3863 27.7761H23.1058C24.5401 27.7761 25.8074 27.5467 26.9077 27.0878C28.008 26.629 28.8626 25.9707 29.4717 25.1129C30.1005 24.2352 30.4148 23.168 30.4148 21.9112C30.4148 20.0161 29.7468 18.5698 28.4107 17.5724C27.0747 16.555 25.385 16.0463 23.3416 16.0463H16.3863V27.7761Z" fill="#FFF9EF"/>
<path d="M68.286 65C65.3978 65 63.8435 64.5212 61.6233 63.5637C59.4228 62.5862 57.6938 61.11 56.4363 59.1351C55.1788 57.1602 53.5501 54.6467 53.5501 51.5946C53.5501 49.0811 54.9725 46.9366 55.8174 45.1612C56.6623 43.3658 57.8411 41.8996 59.354 40.7626C60.8669 39.6255 62.6254 38.7577 64.6294 38.1593C66.6532 37.5608 67.8341 37.1718 70.1722 36.9923C72.7067 36.7928 74.7403 37.5534 76.2728 37.2741C77.825 36.9749 78.9449 36.566 79.6326 36.0473C80.3203 35.5087 80.6641 34.8005 80.6641 33.9228V33.8031C80.6641 32.6062 80.2122 32.6885 79.3084 32.0502C78.4046 31.4118 77.2454 31.0927 75.8307 31.0927C74.2786 31.0927 73.0113 31.4418 72.0289 32.14C71.0661 32.8182 70.4865 32.8655 70.29 34.2819H57.3184C57.5149 31.4891 57.3892 29.9157 58.9414 27.5618C60.5132 25.1879 61.8022 23.2928 64.8083 21.8764C67.8144 20.4402 71.5672 19.722 76.0665 19.722C79.3084 19.722 82.2163 20.111 84.7901 20.889C87.364 21.647 89.5547 22.7143 91.3623 24.0907C93.1699 25.4472 94.5453 27.0431 95.4884 28.8784C96.4511 30.6937 96.9325 31.6686 96.9325 33.8031V64.2819H81.7251V57.8185H81.3714C80.4676 59.5341 79.3673 60.9205 78.0706 61.9778C76.7935 63.0351 75.3297 63.8031 73.6793 64.2819C72.0485 64.7606 70.2508 65 68.286 65ZM73.5909 54.5869C74.8287 54.5869 75.9879 54.3275 77.0686 53.8089C78.1688 53.2902 79.0628 52.5421 79.7505 51.5647C80.4381 50.5872 80.782 49.4003 80.782 48.0039V44.1737C80.3497 44.3533 79.888 44.5228 79.3968 44.6824C78.9253 44.842 78.4144 44.9916 77.8643 45.1313C77.3338 45.2709 76.764 45.4006 76.1549 45.5203C75.5655 45.64 74.9466 45.7497 74.2982 45.8494C73.0407 46.0489 72.0092 46.3781 71.2037 46.8369C70.4178 47.2757 69.8283 47.8243 69.4354 48.4826C69.0621 49.121 68.8754 49.8391 68.8754 50.6371C68.8754 51.9138 69.3175 52.8913 70.2016 53.5695C71.0858 54.2477 72.2155 54.5869 73.5909 54.5869Z" fill="#FFF9EF"/>
<path d="M120.974 41.4286V64.2819H104.706V21.3205H120.149V30.0579H120.62C121.603 27.1454 123.332 24.8613 125.807 23.2056C128.303 21.5499 131.211 20.722 134.531 20.722C137.734 20.722 140.514 21.4701 142.872 22.9662C145.249 24.4424 147.086 26.4772 148.383 29.0705C149.699 31.6638 150.348 34.6261 150.328 37.9575V64.2819H134.059V41.4286C134.079 39.1544 133.509 37.369 132.35 36.0724C131.211 34.7757 129.619 34.1274 127.576 34.1274C126.24 34.1274 125.071 34.4266 124.069 35.0251C123.086 35.6036 122.33 36.4414 121.799 37.5386C121.269 38.6158 120.994 39.9125 120.974 41.4286Z" fill="#FFF9EF"/>
<path d="M174.745 64.8803C171.523 64.8803 168.556 64.0225 165.845 62.3069C163.153 60.5914 160.992 57.9881 159.361 54.4971C157.75 51.0061 156.944 46.6075 156.944 41.3012C156.944 35.7555 157.789 34.2471 159.479 30.7761C161.188 27.305 163.389 24.7616 166.081 23.1458C168.792 21.5299 171.641 20.722 174.627 20.722C176.867 20.722 178.832 21.121 180.522 21.9189C182.211 22.6969 183.626 23.7442 184.766 25.0608C185.905 26.3575 186.77 27.7838 187.359 29.3398H187.595V0H204.863V64.2819H187.713V56.7413H187.359C186.73 58.2973 185.827 59.6937 184.648 60.9305C183.488 62.1474 182.074 63.1149 180.404 63.833C178.753 64.5312 176.867 64.8803 174.745 64.8803ZM180.757 52.1931C182.251 52.1931 183.528 51.7542 184.589 50.8764C185.669 49.9788 186.495 48.722 187.064 47.1062C187.654 45.4704 187.949 43.5354 187.949 41.3012C187.949 39.027 187.654 40.082 187.064 38.4662C186.495 36.8304 185.669 35.5837 184.589 34.7259C183.528 33.8481 182.251 33.4093 180.757 33.4093C179.264 33.4093 177.987 33.8481 176.926 34.7259C175.885 35.5837 175.079 36.8304 174.509 38.4662C173.959 40.082 173.684 39.027 173.684 41.3012C173.684 43.5753 173.959 45.5302 174.509 47.166C175.079 48.7819 175.885 50.0286 176.926 50.9064C177.987 51.7642 179.264 52.1931 180.757 52.1931Z" fill="#FFF9EF"/>
</svg>
