<svg width="282" height="52" viewBox="0 0 282 52" fill="none" xmlns="http://www.w3.org/2000/svg">
<path d="M170.641 51.1076V2.38281L201.203 2.38281V13.8365L184.464 13.8365V22.211H199.936V33.6647H184.464V51.1076H170.641Z" fill="#EF4343"/>
<path d="M258.126 32.9371V51.1076H245.191V16.9493L257.47 16.9493V23.8964H257.845C258.626 21.5807 260.001 19.7646 261.969 18.4482C263.953 17.1317 266.265 16.4735 268.905 16.4735C271.451 16.4735 273.662 17.0683 275.536 18.2578C277.427 19.4315 278.887 21.0493 279.918 23.1113C280.965 25.1732 281.481 27.5285 281.465 30.1773V51.1076H268.53V32.9371C268.546 31.129 268.093 29.7094 267.171 28.6785C266.265 27.6475 264.999 27.132 263.375 27.132C262.313 27.132 261.383 27.3699 260.586 27.8458C259.805 28.3057 259.204 28.9719 258.782 29.8442C258.36 30.7007 258.142 31.7317 258.126 32.9371Z" fill="#EF4343"/>
<path d="M215.754 51.1076C213.457 51.1076 212.221 50.727 210.456 49.9656C208.707 49.1884 207.332 48.0147 206.332 46.4445C205.332 44.8743 204.037 42.8758 204.037 40.4491C204.037 38.4506 205.168 36.7455 205.84 35.3339C206.512 33.9064 207.449 32.7406 208.652 31.8366C209.855 30.9325 211.253 30.2425 212.846 29.7667C214.455 29.2909 215.394 28.9816 217.253 28.8389C219.268 28.6802 220.885 29.285 222.104 29.063C223.338 28.825 224.228 28.4999 224.775 28.0875C225.322 27.6593 225.595 27.0962 225.595 26.3983V26.3032C225.595 25.3515 225.236 25.417 224.517 24.9094C223.799 24.4019 222.877 24.1481 221.752 24.1481C220.518 24.1481 219.511 24.4257 218.73 24.9808C217.964 25.5201 217.503 25.5577 217.347 26.6838H207.033C207.19 24.4633 207.09 23.2123 208.324 21.3407C209.574 19.4533 210.598 17.9465 212.989 16.8204C215.379 15.6784 218.362 15.1074 221.94 15.1074C224.517 15.1074 226.829 15.4167 228.876 16.0352C230.922 16.638 232.664 17.4865 234.101 18.5809C235.539 19.6595 236.632 20.9283 237.382 22.3875C238.148 23.8309 238.53 24.606 238.53 26.3032V50.5366L226.439 50.5366V45.3977H226.158C225.439 46.7617 224.564 47.8641 223.533 48.7047C222.518 49.5453 221.354 50.156 220.042 50.5366C218.745 50.9173 217.316 51.1076 215.754 51.1076ZM219.971 42.8282C220.956 42.8282 221.877 42.622 222.737 42.2096C223.611 41.7972 224.322 41.2025 224.869 40.4253C225.416 39.6481 225.689 38.7044 225.689 37.5941V34.5488C225.345 34.6915 224.978 34.8264 224.588 34.9533C224.213 35.0801 223.807 35.1991 223.369 35.3101C222.947 35.4211 222.494 35.5242 222.01 35.6194C221.541 35.7146 221.049 35.8018 220.534 35.8811C219.534 36.0397 218.714 36.3014 218.073 36.6662C217.449 37.0152 216.98 37.4513 216.667 37.9748C216.371 38.4823 216.222 39.0533 216.222 39.6877C216.222 40.7028 216.574 41.48 217.277 42.0193C217.98 42.5586 218.878 42.8282 219.971 42.8282Z" fill="#EF4343"/>
<path d="M0 51.1101L0 2.38528L20.8083 2.38528C24.4638 2.38528 27.5335 2.8849 30.0174 3.88414C32.5169 4.88338 34.3993 6.295 35.6647 8.11901C36.9457 9.94302 37.5862 12.0922 37.5862 14.5665C37.5862 16.3588 37.1956 17.9924 36.4145 19.4675C35.6491 20.9426 34.5712 22.1797 33.1808 23.179C31.7905 24.1623 30.1658 24.8444 28.3068 25.225V25.7009C30.3689 25.7802 32.2435 26.3115 33.9307 27.2949C35.6178 28.2624 36.9613 29.6027 37.9611 31.3156C38.9609 33.0128 39.4608 35.0112 39.4608 37.3111C39.4608 39.9757 38.7734 42.3469 37.3987 44.4247C36.0396 46.5025 34.1025 48.1362 31.5874 49.3257C29.0723 50.5153 26.0729 51.1101 22.5892 51.1101H0ZM13.0286 40.5467H19.1211C21.3082 40.5467 22.9485 40.1343 24.042 39.3095C25.1356 38.4689 25.6823 37.2318 25.6823 35.5981C25.6823 34.4561 25.4246 33.4886 24.909 32.6955C24.3935 31.9025 23.6593 31.2998 22.7064 30.8874C21.769 30.475 20.6365 30.2688 19.3086 30.2688H13.0286V40.5467ZM13.0286 22.0846H18.3713C19.5117 22.0846 20.5193 21.9022 21.3941 21.5374C22.2689 21.1726 22.9485 20.6492 23.4328 19.9671C23.9327 19.2693 24.1826 18.4207 24.1826 17.4214C24.1826 15.9147 23.6515 14.7647 22.5892 13.9717C21.5269 13.1628 20.1834 12.7583 18.5588 12.7583L13.0286 12.7583L13.0286 22.0846Z" fill="#222220"/>
<path d="M54.2937 51.6811C51.9973 51.6811 50.7616 51.3004 48.9963 50.5391C47.2467 49.7619 45.8719 48.5882 44.8721 47.018C43.8723 45.4477 42.5773 43.4493 42.5773 41.0225C42.5773 39.0241 43.7083 37.319 44.3801 35.9074C45.0518 34.4799 45.9891 33.3141 47.192 32.41C48.3949 31.506 49.793 30.816 51.3864 30.3402C52.9955 29.8644 53.9344 29.5551 55.7934 29.4123C57.8087 29.2537 59.4255 29.8585 60.644 29.6364C61.8781 29.3985 62.7686 29.0734 63.3154 28.661C63.8621 28.2327 64.1355 27.6697 64.1355 26.9718V26.8766C64.1355 25.925 63.7762 25.9905 63.0576 25.4829C62.339 24.9754 61.4173 24.7216 60.2925 24.7216C59.0584 24.7216 58.0508 24.9991 57.2697 25.5543C56.5042 26.0935 56.0434 26.1312 55.8872 27.2573H45.5735C45.7297 25.0367 45.6298 23.7858 46.8639 21.9142C48.1137 20.0267 49.1385 18.52 51.5287 17.3938C53.9188 16.2518 56.9026 15.6808 60.48 15.6808C63.0576 15.6808 65.3696 15.9901 67.4161 16.6087C69.4625 17.2114 71.2044 18.06 72.6416 19.1544C74.0788 20.2329 75.1723 21.5018 75.9222 22.961C76.6877 24.4044 77.0704 25.1795 77.0704 26.8766V51.1101H64.9791V45.9711H64.6979C63.9793 47.3352 63.1045 48.4375 62.0734 49.2781C61.058 50.1188 59.8942 50.7294 58.5819 51.1101C57.2853 51.4907 55.8559 51.6811 54.2937 51.6811ZM58.5116 43.4017C59.4958 43.4017 60.4175 43.1955 61.2767 42.7831C62.1515 42.3707 62.8623 41.7759 63.4091 40.9987C63.9558 40.2215 64.2292 39.2778 64.2292 38.1676V35.1223C63.8856 35.265 63.5184 35.3998 63.1279 35.5267C62.753 35.6536 62.3468 35.7726 61.9094 35.8836C61.4876 35.9946 61.0346 36.0977 60.5503 36.1929C60.0816 36.288 59.5895 36.3753 59.074 36.4546C58.0742 36.6132 57.2541 36.8749 56.6136 37.2397C55.9887 37.5886 55.52 38.0248 55.2076 38.5482C54.9108 39.0558 54.7624 39.6268 54.7624 40.2612C54.7624 41.2763 55.1139 42.0535 55.8169 42.5928C56.5198 43.132 57.4181 43.4017 58.5116 43.4017Z" fill="#222220"/>
<path d="M96.1857 32.9396V51.1101H83.2508V16.9518H95.5296V23.8989H95.9045C96.6856 21.5832 98.0603 19.7671 100.029 18.4506C102.013 17.1342 104.325 16.4759 106.965 16.4759C109.511 16.4759 111.722 17.0707 113.596 18.2603C115.486 19.434 116.947 21.0518 117.978 23.1137C119.025 25.1757 119.54 27.531 119.525 30.1798V51.1101H106.59V32.9396C106.605 31.1314 106.152 29.7119 105.231 28.6809C104.325 27.65 103.059 27.1345 101.435 27.1345C100.372 27.1345 99.4428 27.3724 98.6461 27.8482C97.865 28.3082 97.2636 28.9744 96.8418 29.8467C96.42 30.7032 96.2013 31.7342 96.1857 32.9396Z" fill="#222220"/>
<path d="M138.939 51.5859C136.377 51.5859 134.018 50.9039 131.862 49.5399C129.722 48.1758 128.003 46.106 126.707 43.3303C125.426 40.5546 124.785 37.0573 124.785 32.8383C124.785 28.4289 125.457 27.2297 126.801 24.4698C128.16 21.71 129.909 19.6878 132.05 18.403C134.205 17.1183 136.471 16.4759 138.845 16.4759C140.626 16.4759 142.188 16.7932 143.532 17.4276C144.875 18.0462 146 18.8789 146.906 19.9257C147.812 20.9566 148.499 22.0907 148.968 23.3279H149.155V0L162.885 0V51.1101H149.249V45.1147H148.968C148.468 46.3518 147.749 47.4621 146.812 48.4454C145.89 49.413 144.766 50.1822 143.438 50.7532C142.126 51.3083 140.626 51.5859 138.939 51.5859ZM143.719 41.4984C144.906 41.4984 145.922 41.1494 146.765 40.4515C147.625 39.7378 148.281 38.7386 148.734 37.4538C149.202 36.1532 149.437 34.6147 149.437 32.8383C149.437 31.0301 149.202 31.869 148.734 30.5842C148.281 29.2836 147.625 28.2923 146.765 27.6103C145.922 26.9124 144.906 26.5635 143.719 26.5635C142.532 26.5635 141.516 26.9124 140.673 27.6103C139.845 28.2923 139.204 29.2836 138.751 30.5842C138.314 31.869 138.095 31.0301 138.095 32.8383C138.095 34.6464 138.314 36.2008 138.751 37.5014C139.204 38.7861 139.845 39.7774 140.673 40.4753C141.516 41.1573 142.532 41.4984 143.719 41.4984Z" fill="#222220"/>
<path d="M208.172 11.6758V4.6781H211.051V5.91273H211.179C211.405 5.50271 211.784 5.17924 212.313 4.94234C212.843 4.70544 213.476 4.58699 214.214 4.58699C214.961 4.58699 215.596 4.70696 216.121 4.9469C216.646 5.1838 216.996 5.50574 217.171 5.91273H217.284C217.506 5.51182 217.908 5.19139 218.49 4.95145C219.076 4.70848 219.768 4.58699 220.567 4.58699C221.584 4.58699 222.409 4.79504 223.042 5.21113C223.68 5.62419 223.999 6.21037 223.999 6.96968V11.6758H220.986V7.35236C220.986 6.9636 220.825 6.67203 220.503 6.47765C220.182 6.28327 219.78 6.18608 219.298 6.18608C218.75 6.18608 218.322 6.29845 218.014 6.52321C217.707 6.74492 217.554 7.03801 217.554 7.40248V11.6758H214.625V7.31136C214.625 6.96816 214.471 6.69481 214.164 6.49132C213.861 6.28782 213.462 6.18608 212.966 6.18608C212.63 6.18608 212.327 6.24075 212.058 6.35009C211.793 6.45639 211.583 6.60673 211.427 6.80111C211.271 6.99246 211.193 7.21721 211.193 7.47537V11.6758H208.172Z" fill="#F1B15E"/>
<path d="M231.307 11.8125C230.205 11.8125 229.253 11.6622 228.449 11.3615C227.65 11.0578 227.033 10.6356 226.598 10.095C226.163 9.5513 225.946 8.92108 225.946 8.2043C225.946 7.48145 226.163 6.84971 226.598 6.30908C227.033 5.76542 227.65 5.34325 228.449 5.04257C229.253 4.73885 230.205 4.58699 231.307 4.58699C232.408 4.58699 233.359 4.73885 234.158 5.04257C234.961 5.34325 235.581 5.76542 236.016 6.30908C236.45 6.84971 236.668 7.48145 236.668 8.2043C236.668 8.92108 236.45 9.5513 236.016 10.095C235.581 10.6356 234.961 11.0578 234.158 11.3615C233.359 11.6622 232.408 11.8125 231.307 11.8125ZM231.321 10.3091C231.822 10.3091 232.241 10.218 232.576 10.0357C232.912 9.85047 233.165 9.59838 233.335 9.27947C233.51 8.96056 233.597 8.59762 233.597 8.19063C233.597 7.78365 233.51 7.4207 233.335 7.10179C233.165 6.78289 232.912 6.5308 232.576 6.34553C232.241 6.16026 231.822 6.06763 231.321 6.06763C230.815 6.06763 230.39 6.16026 230.045 6.34553C229.704 6.5308 229.447 6.78289 229.272 7.10179C229.102 7.4207 229.017 7.78365 229.017 8.19063C229.017 8.59762 229.102 8.96056 229.272 9.27947C229.447 9.59838 229.704 9.85047 230.045 10.0357C230.39 10.218 230.815 10.3091 231.321 10.3091Z" fill="#F1B15E"/>
<path d="M238.689 11.6758V2.34553H241.71V5.8535H241.802C241.934 5.6652 242.126 5.47385 242.376 5.27947C242.632 5.08205 242.963 4.91804 243.369 4.78744C243.78 4.65381 244.291 4.58699 244.901 4.58699C245.695 4.58699 246.428 4.72063 247.099 4.9879C247.77 5.25214 248.307 5.65153 248.709 6.18608C249.111 6.71759 249.312 7.38425 249.312 8.18608C249.312 8.96664 249.115 9.62571 248.723 10.1633C248.335 10.6978 247.806 11.1033 247.135 11.3797C246.468 11.653 245.721 11.7897 244.894 11.7897C244.308 11.7897 243.809 11.7275 243.397 11.6029C242.991 11.4784 242.658 11.322 242.398 11.1337C242.138 10.9423 241.939 10.7495 241.802 10.5551H241.667V11.6758H238.689ZM241.646 8.17697C241.646 8.59306 241.736 8.95601 241.915 9.2658C242.095 9.5756 242.355 9.81706 242.695 9.99018C243.036 10.1603 243.449 10.2453 243.936 10.2453C244.428 10.2453 244.844 10.1587 245.184 9.98562C245.525 9.80946 245.782 9.56649 245.957 9.25669C246.137 8.94386 246.227 8.58395 246.227 8.17697C246.227 7.77302 246.139 7.41766 245.965 7.11091C245.79 6.80415 245.532 6.56421 245.192 6.39109C244.851 6.21797 244.433 6.13141 243.936 6.13141C243.445 6.13141 243.029 6.21493 242.688 6.38198C242.353 6.54902 242.095 6.78592 241.915 7.09268C241.736 7.39944 241.646 7.76087 241.646 8.17697Z" fill="#F1B15E"/>
<path d="M251.327 11.6758V4.6781L254.348 4.6781V11.6758H251.327ZM252.845 3.77605C252.396 3.77605 252.01 3.68038 251.689 3.48904C251.372 3.29466 251.214 3.06231 251.214 2.792C251.214 2.52472 251.372 2.29542 251.689 2.10407C252.01 1.90969 252.396 1.8125 252.845 1.8125C253.294 1.8125 253.677 1.90969 253.994 2.10407C254.315 2.29542 254.476 2.52472 254.476 2.792C254.476 3.06231 254.315 3.29466 253.994 3.48904C253.677 3.68038 253.294 3.77605 252.845 3.77605Z" fill="#F1B15E"/>
<path d="M259.789 2.34553V11.6758H256.768V2.34553H259.789Z" fill="#F1B15E"/>
<path d="M267.173 11.8125C266.052 11.8125 265.088 11.6667 264.279 11.3751C263.476 11.0805 262.856 10.6644 262.421 10.1269C261.987 9.58623 261.769 8.9469 261.769 8.20886C261.769 7.48904 261.987 6.8573 262.421 6.31364C262.856 5.76998 263.469 5.34629 264.258 5.04257C265.052 4.73885 265.984 4.58699 267.052 4.58699C267.771 4.58699 268.44 4.6614 269.059 4.81022C269.683 4.95601 270.227 5.17621 270.69 5.47081C271.158 5.76542 271.522 6.13596 271.782 6.58243C272.042 7.02586 272.172 7.54523 272.172 8.14052V8.67355H262.975V7.47081L269.328 7.47081C269.328 7.19139 269.234 6.94386 269.045 6.72822C268.856 6.51258 268.593 6.34401 268.258 6.22252C267.927 6.098 267.541 6.03574 267.102 6.03574C266.643 6.03574 266.237 6.10407 265.882 6.24075C265.532 6.37438 265.258 6.5551 265.059 6.78289C264.861 7.00764 264.759 7.25821 264.754 7.5346V8.6781C264.754 9.02435 264.854 9.32351 265.052 9.5756C265.256 9.82769 265.542 10.0221 265.91 10.1587C266.279 10.2954 266.716 10.3638 267.222 10.3638C267.558 10.3638 267.865 10.3334 268.144 10.2726C268.423 10.2119 268.662 10.1208 268.86 9.99929C269.059 9.8778 269.21 9.72898 269.314 9.55282L272.108 9.67127C271.966 10.1026 271.675 10.4792 271.236 10.8011C270.801 11.12 270.238 11.3691 269.548 11.5483C268.863 11.7244 268.071 11.8125 267.173 11.8125Z" fill="#F1B15E"/>
</svg>
