<svg width="282" height="52" viewBox="0 0 282 52" fill="none" xmlns="http://www.w3.org/2000/svg">
<path d="M170.773 51.1463V2.38281H201.361V13.8455H184.608V22.2268H200.093V33.6895H184.608V51.1463H170.773Z" fill="#EF4343"/>
<path d="M258.328 32.9614V51.1463H245.383V16.9609H257.671V23.9135H258.047C258.828 21.5959 260.204 19.7784 262.174 18.4609C264.16 17.1434 266.474 16.4846 269.116 16.4846C271.664 16.4846 273.876 17.0799 275.752 18.2704C277.644 19.4451 279.106 21.0642 280.138 23.1277C281.185 25.1913 281.701 27.5485 281.686 30.1994V51.1463H268.741V32.9614C268.756 31.1518 268.303 29.7311 267.38 28.6993C266.474 27.6675 265.207 27.1517 263.581 27.1517C262.518 27.1517 261.588 27.3898 260.791 27.866C260.009 28.3263 259.407 28.993 258.985 29.866C258.563 30.7232 258.344 31.755 258.328 32.9614Z" fill="#EF4343"/>
<path d="M215.922 51.1463C213.624 51.1463 212.387 50.7653 210.621 50.0034C208.87 49.2256 207.494 48.0509 206.493 46.4795C205.493 44.908 204.197 42.9079 204.197 40.4793C204.197 38.4792 205.328 36.7728 206.001 35.3601C206.673 33.9314 207.611 32.7647 208.815 31.8599C210.019 30.9552 211.418 30.2647 213.013 29.7885C214.623 29.3122 215.563 29.0027 217.423 28.8599C219.44 28.7011 221.058 29.3064 222.278 29.0841C223.513 28.846 224.404 28.5206 224.951 28.1079C225.498 27.6793 225.772 27.1158 225.772 26.4174V26.3221C225.772 25.3697 225.412 25.4353 224.693 24.9273C223.974 24.4194 223.051 24.1654 221.926 24.1654C220.691 24.1654 219.682 24.4432 218.901 24.9987C218.134 25.5384 217.673 25.5761 217.517 26.7031H207.195C207.351 24.4808 207.251 23.2288 208.486 21.3558C209.737 19.4668 210.763 17.9588 213.155 16.8318C215.547 15.6889 218.533 15.1175 222.113 15.1175C224.693 15.1175 227.007 15.427 229.055 16.0461C231.103 16.6493 232.846 17.4985 234.285 18.5938C235.723 19.6732 236.817 20.9431 237.568 22.4034C238.334 23.8479 238.717 24.6237 238.717 26.3221V50.5748H226.616V45.4318H226.335C225.615 46.7969 224.74 47.9001 223.708 48.7414C222.692 49.5827 221.527 50.1939 220.214 50.5748C218.916 50.9558 217.486 51.1463 215.922 51.1463ZM220.143 42.8603C221.128 42.8603 222.051 42.6539 222.911 42.2412C223.786 41.8285 224.498 41.2333 225.045 40.4555C225.592 39.6777 225.866 38.7332 225.866 37.622V34.5743C225.522 34.7172 225.154 34.8521 224.763 34.9791C224.388 35.1061 223.982 35.2251 223.544 35.3362C223.122 35.4474 222.668 35.5505 222.184 35.6458C221.715 35.741 221.222 35.8283 220.706 35.9077C219.706 36.0664 218.885 36.3283 218.244 36.6934C217.619 37.0427 217.149 37.4792 216.837 38.003C216.54 38.511 216.391 39.0824 216.391 39.7173C216.391 40.7332 216.743 41.5111 217.447 42.0508C218.15 42.5905 219.049 42.8603 220.143 42.8603Z" fill="#EF4343"/>
<path d="M0 51.1506V2.38717H20.8248C24.4832 2.38717 27.5554 2.88719 30.0412 3.88722C32.5427 4.88725 34.4266 6.3 35.693 8.12545C36.975 9.95091 37.616 12.1018 37.616 14.578C37.616 16.3717 37.2251 18.0067 36.4434 19.483C35.6774 20.9592 34.5986 22.1973 33.2071 23.1974C31.8157 24.1815 30.1897 24.8641 28.3293 25.2451V25.7213C30.393 25.8006 32.2691 26.3324 33.9576 27.3165C35.6461 28.2848 36.9906 29.6261 37.9912 31.3405C38.9918 33.039 39.4921 35.039 39.4921 37.3407C39.4921 40.0074 38.8042 42.3805 37.4284 44.46C36.0682 46.5394 34.1296 48.1744 31.6124 49.3649C29.0953 50.5554 26.0936 51.1506 22.6071 51.1506H0ZM13.039 40.5789H19.1363C21.3251 40.5789 22.9667 40.1662 24.0611 39.3407C25.1555 38.4994 25.7027 37.2613 25.7027 35.6263C25.7027 34.4834 25.4447 33.5152 24.9288 32.7215C24.4129 31.9278 23.6781 31.3246 22.7244 30.9119C21.7863 30.4992 20.6528 30.2928 19.3239 30.2928H13.039V40.5789ZM13.039 22.1021H18.3859C19.5272 22.1021 20.5356 21.9195 21.4111 21.5545C22.2866 21.1894 22.9667 20.6655 23.4514 19.983C23.9517 19.2845 24.2018 18.4353 24.2018 17.4353C24.2018 15.9273 23.6702 14.7765 22.6071 13.9828C21.544 13.1732 20.1994 12.7685 18.5735 12.7685H13.039V22.1021Z" fill="#FFF9EF"/>
<path d="M54.3368 51.7221C52.0386 51.7221 50.8019 51.3411 49.0352 50.5792C47.2842 49.8014 45.9083 48.6268 44.9077 47.0553C43.9072 45.4838 42.6111 43.4837 42.6111 41.0551C42.6111 39.055 43.743 37.3486 44.4153 35.9359C45.0875 34.5073 46.0256 33.3405 47.2294 32.4358C48.4333 31.531 49.8325 30.8405 51.4272 30.3643C53.0376 29.8881 53.9772 29.5785 55.8377 29.4357C57.8545 29.2769 59.4727 29.8822 60.6921 29.6599C61.9272 29.4218 62.8184 29.0964 63.3656 28.6837C63.9128 28.2551 64.1864 27.6916 64.1864 26.9932V26.8979C64.1864 25.9455 63.8268 26.0111 63.1076 25.5031C62.3885 24.9952 61.466 24.7412 60.3404 24.7412C59.1053 24.7412 58.0969 25.019 57.3151 25.5746C56.5491 26.1143 56.0879 26.1519 55.9315 27.2789H45.6097C45.766 25.0566 45.666 23.8047 46.9011 21.9316C48.1519 20.0426 49.1775 18.5346 51.5696 17.4076C53.9616 16.2647 56.9477 15.6933 60.528 15.6933C63.1076 15.6933 65.4215 16.0028 67.4696 16.6219C69.5177 17.2251 71.2609 18.0743 72.6992 19.1696C74.1376 20.249 75.232 21.5189 75.9824 22.9792C76.7485 24.4237 77.1316 25.1995 77.1316 26.8979V51.1506H65.0306V46.0076H64.7492C64.0301 47.3727 63.1545 48.476 62.1227 49.3173C61.1064 50.1586 59.9417 50.7697 58.6284 51.1506C57.3308 51.5316 55.9002 51.7221 54.3368 51.7221ZM58.5581 43.4361C59.543 43.4361 60.4654 43.2298 61.3253 42.817C62.2008 42.4043 62.9122 41.8091 63.4594 41.0313C64.0066 40.2535 64.2802 39.309 64.2802 38.1978V35.1501C63.9363 35.293 63.5688 35.4279 63.178 35.5549C62.8028 35.6819 62.3963 35.8009 61.9585 35.9121C61.5364 36.0232 61.083 36.1264 60.5983 36.2216C60.1293 36.3168 59.6368 36.4041 59.1209 36.4835C58.1203 36.6422 57.2995 36.9042 56.6585 37.2692C56.0331 37.6185 55.5641 38.055 55.2514 38.5788C54.9544 39.0868 54.8059 39.6582 54.8059 40.2932C54.8059 41.3091 55.1576 42.0869 55.8612 42.6266C56.5647 43.1663 57.4637 43.4361 58.5581 43.4361Z" fill="#FFF9EF"/>
<path d="M96.262 32.9657V51.1506H83.3168V16.9652H95.6054V23.9178H95.9806C96.7623 21.6003 98.1381 19.7828 100.108 18.4653C102.094 17.1478 104.407 16.489 107.05 16.489C109.598 16.489 111.81 17.0843 113.686 18.2748C115.578 19.4494 117.04 21.0685 118.072 23.1321C119.119 25.1956 119.635 27.5529 119.62 30.2037V51.1506H106.674V32.9657C106.69 31.1561 106.237 29.7355 105.314 28.7037C104.407 27.6719 103.141 27.156 101.515 27.156C100.452 27.156 99.5217 27.3941 98.7244 27.8703C97.9427 28.3307 97.3408 28.9974 96.9186 29.8704C96.4965 30.7276 96.2776 31.7593 96.262 32.9657Z" fill="#FFF9EF"/>
<path d="M139.049 51.6269C136.485 51.6269 134.124 50.9443 131.967 49.5792C129.825 48.214 128.105 46.1425 126.807 43.3647C125.525 40.5868 124.884 37.0867 124.884 32.8643C124.884 28.4515 125.557 27.2513 126.901 24.4893C128.261 21.7273 130.012 19.7034 132.154 18.4176C134.312 17.1319 136.579 16.489 138.955 16.489C140.738 16.489 142.301 16.8065 143.645 17.4414C144.99 18.0605 146.116 18.8938 147.022 19.9415C147.929 20.9733 148.617 22.1082 149.086 23.3464H149.274V0H163.015V51.1506H149.368V45.1505H149.086C148.586 46.3886 147.867 47.4997 146.929 48.4839C146.006 49.4522 144.881 50.222 143.552 50.7935C142.238 51.3491 140.738 51.6269 139.049 51.6269ZM143.833 41.5313C145.021 41.5313 146.038 41.1821 146.882 40.4836C147.742 39.7693 148.398 38.7693 148.852 37.4835C149.321 36.1819 149.555 34.6422 149.555 32.8643C149.555 31.0548 149.321 31.8943 148.852 30.6085C148.398 29.3069 147.742 28.3148 146.882 27.6322C146.038 26.9338 145.021 26.5846 143.833 26.5846C142.645 26.5846 141.629 26.9338 140.784 27.6322C139.956 28.3148 139.315 29.3069 138.861 30.6085C138.424 31.8943 138.205 31.0548 138.205 32.8643C138.205 34.6739 138.424 36.2295 138.861 37.5312C139.315 38.8169 139.956 39.809 140.784 40.5074C141.629 41.19 142.645 41.5313 143.833 41.5313Z" fill="#FFF9EF"/>
<path d="M208.148 11.6446V4.64685H211.027V5.88148H211.155C211.382 5.47146 211.76 5.14799 212.29 4.91109C212.819 4.67419 213.453 4.55574 214.19 4.55574C214.937 4.55574 215.573 4.67571 216.098 4.91565C216.622 5.15255 216.972 5.47449 217.147 5.88148H217.261C217.483 5.48057 217.885 5.16014 218.466 4.9202C219.052 4.67723 219.745 4.55574 220.544 4.55574C221.56 4.55574 222.385 4.76379 223.019 5.17988C223.657 5.59294 223.976 6.17912 223.976 6.93843V11.6446H220.962V7.32111C220.962 6.93235 220.802 6.64078 220.48 6.4464C220.159 6.25202 219.757 6.15483 219.275 6.15483C218.726 6.15483 218.298 6.2672 217.991 6.49196C217.684 6.71367 217.53 7.00676 217.53 7.37123V11.6446H214.601V7.28011C214.601 6.93691 214.448 6.66356 214.141 6.46007C213.838 6.25657 213.438 6.15483 212.942 6.15483C212.606 6.15483 212.304 6.2095 212.034 6.31884C211.77 6.42514 211.559 6.57548 211.403 6.76986C211.247 6.96121 211.169 7.18596 211.169 7.44412V11.6446H208.148Z" fill="#6EA06E"/>
<path d="M231.284 11.7813C230.182 11.7813 229.229 11.6309 228.426 11.3302C227.627 11.0265 227.01 10.6043 226.575 10.0637C226.14 9.52005 225.923 8.88983 225.923 8.17305C225.923 7.4502 226.14 6.81846 226.575 6.27783C227.01 5.73417 227.627 5.312 228.426 5.01132C229.229 4.7076 230.182 4.55574 231.284 4.55574C232.385 4.55574 233.335 4.7076 234.134 5.01132C234.938 5.312 235.557 5.73417 235.992 6.27783C236.427 6.81846 236.644 7.4502 236.644 8.17305C236.644 8.88983 236.427 9.52005 235.992 10.0637C235.557 10.6043 234.938 11.0265 234.134 11.3302C233.335 11.6309 232.385 11.7813 231.284 11.7813ZM231.298 10.2778C231.799 10.2778 232.217 10.1867 232.553 10.0045C232.889 9.81922 233.141 9.56713 233.312 9.24822C233.487 8.92931 233.574 8.56637 233.574 8.15938C233.574 7.7524 233.487 7.38945 233.312 7.07054C233.141 6.75164 232.889 6.49955 232.553 6.31428C232.217 6.12901 231.799 6.03638 231.298 6.03638C230.792 6.03638 230.366 6.12901 230.021 6.31428C229.681 6.49955 229.423 6.75164 229.248 7.07054C229.078 7.38945 228.993 7.7524 228.993 8.15938C228.993 8.56637 229.078 8.92931 229.248 9.24822C229.423 9.56713 229.681 9.81922 230.021 10.0045C230.366 10.1867 230.792 10.2778 231.298 10.2778Z" fill="#6EA06E"/>
<path d="M238.665 11.6446V2.31428H241.686V5.82225H241.779C241.911 5.63395 242.102 5.4426 242.353 5.24822C242.608 5.0508 242.939 4.88679 243.346 4.75619C243.757 4.62256 244.268 4.55574 244.877 4.55574C245.672 4.55574 246.404 4.68938 247.076 4.95665C247.747 5.22089 248.284 5.62028 248.685 6.15483C249.087 6.68634 249.288 7.353 249.288 8.15483C249.288 8.93539 249.092 9.59446 248.7 10.132C248.312 10.6666 247.782 11.0721 247.111 11.3484C246.445 11.6218 245.698 11.7585 244.87 11.7585C244.284 11.7585 243.785 11.6962 243.374 11.5717C242.967 11.4472 242.634 11.2907 242.374 11.1024C242.114 10.9111 241.916 10.7182 241.779 10.5238H241.644V11.6446H238.665ZM241.623 8.14572C241.623 8.56181 241.712 8.92476 241.892 9.23455C242.072 9.54435 242.332 9.78581 242.672 9.95893C243.012 10.129 243.426 10.2141 243.913 10.2141C244.405 10.2141 244.821 10.1275 245.161 9.95437C245.501 9.77821 245.759 9.53524 245.934 9.22544C246.114 8.91261 246.203 8.5527 246.203 8.14572C246.203 7.74177 246.116 7.38641 245.941 7.07966C245.766 6.7729 245.509 6.53296 245.168 6.35984C244.828 6.18672 244.409 6.10016 243.913 6.10016C243.421 6.10016 243.005 6.18368 242.665 6.35073C242.329 6.51777 242.072 6.75467 241.892 7.06143C241.712 7.36819 241.623 7.72962 241.623 8.14572Z" fill="#6EA06E"/>
<path d="M251.304 11.6446V4.64685L254.325 4.64685V11.6446H251.304ZM252.821 3.7448C252.372 3.7448 251.987 3.64913 251.665 3.45779C251.349 3.26341 251.19 3.03106 251.19 2.76075C251.19 2.49347 251.349 2.26417 251.665 2.07282C251.987 1.87844 252.372 1.78125 252.821 1.78125C253.27 1.78125 253.653 1.87844 253.97 2.07282C254.292 2.26417 254.452 2.49347 254.452 2.76075C254.452 3.03106 254.292 3.26341 253.97 3.45779C253.653 3.64913 253.27 3.7448 252.821 3.7448Z" fill="#6EA06E"/>
<path d="M259.765 2.31428V11.6446H256.745V2.31428H259.765Z" fill="#6EA06E"/>
<path d="M267.149 11.7813C266.029 11.7813 265.064 11.6355 264.256 11.3439C263.452 11.0493 262.833 10.6332 262.398 10.0956C261.963 9.55498 261.746 8.91565 261.746 8.17761C261.746 7.45779 261.963 6.82605 262.398 6.28239C262.833 5.73873 263.445 5.31504 264.235 5.01132C265.029 4.7076 265.96 4.55574 267.029 4.55574C267.747 4.55574 268.416 4.63015 269.035 4.77897C269.659 4.92476 270.203 5.14496 270.666 5.43956C271.134 5.73417 271.498 6.10471 271.758 6.55118C272.018 6.99461 272.148 7.51398 272.148 8.10927V8.6423H262.951V7.43956L269.305 7.43956C269.305 7.16014 269.21 6.91261 269.021 6.69697C268.832 6.48133 268.57 6.31276 268.234 6.19127C267.903 6.06675 267.518 6.00449 267.078 6.00449C266.62 6.00449 266.213 6.07282 265.859 6.2095C265.509 6.34313 265.234 6.52385 265.036 6.75164C264.837 6.97639 264.736 7.22696 264.731 7.50335V8.64685C264.731 8.9931 264.83 9.29226 265.029 9.54435C265.232 9.79644 265.518 9.99082 265.887 10.1275C266.256 10.2642 266.693 10.3325 267.199 10.3325C267.534 10.3325 267.842 10.3021 268.121 10.2414C268.4 10.1806 268.638 10.0895 268.837 9.96804C269.035 9.84655 269.187 9.69773 269.291 9.52157L272.085 9.64002C271.943 10.0713 271.652 10.4479 271.212 10.7699C270.777 11.0888 270.215 11.3378 269.525 11.517C268.839 11.6932 268.047 11.7813 267.149 11.7813Z" fill="#6EA06E"/>
</svg>
