<svg width="526" height="526" viewBox="0 0 526 526" fill="none" xmlns="http://www.w3.org/2000/svg">
<rect x="3.5" y="3.5" width="519" height="519" fill="#333333" stroke="#474747" stroke-width="7"/>
<path d="M261.202 279.523V153.789H356.68V177.659H285.072V320.875C285.072 347.24 263.698 368.614 237.333 368.614C210.967 368.614 189.594 347.24 189.594 320.875C189.594 294.51 210.967 273.136 237.333 273.136C246.028 273.136 254.181 275.461 261.202 279.523ZM237.333 344.745C250.516 344.745 261.202 334.058 261.202 320.875C261.202 307.692 250.516 297.006 237.333 297.006C224.15 297.006 213.463 307.692 213.463 320.875C213.463 334.058 224.15 344.745 237.333 344.745Z" fill="white"/>
</svg>
