<svg width="94" height="62" viewBox="0 0 94 62" fill="none" xmlns="http://www.w3.org/2000/svg">
<path d="M54.6172 61.2819V0H93.0565V14.4054H72.0034V24.9382H91.463V39.3436H72.0034V61.2819H54.6172Z" fill="#EF4343"/>
<path d="M0 61.2819V0H26.1709C30.7685 0 34.6293 0.628379 37.7533 1.88514C40.8969 3.14189 43.2645 4.91731 44.856 7.21139C46.4671 9.50547 47.2726 12.2085 47.2726 15.3205C47.2726 17.5746 46.7814 19.6293 45.7991 21.4846C44.8363 23.3398 43.4806 24.8958 41.732 26.1525C39.9833 27.3893 37.9399 28.2471 35.6018 28.7259V29.3243C38.1954 29.4241 40.5531 30.0923 42.6751 31.3292C44.797 32.546 46.4867 34.2317 47.7442 36.3861C49.0016 38.5206 49.6304 41.0341 49.6304 43.9266C49.6304 47.278 48.7659 50.2603 47.0369 52.8736C45.3275 55.4868 42.8912 57.5415 39.7279 59.0376C36.5646 60.5338 32.7922 61.2819 28.4107 61.2819H0ZM16.3863 47.9961H24.0489C26.7996 47.9961 28.8626 47.4775 30.238 46.4402C31.6133 45.3829 32.301 43.8269 32.301 41.7722C32.301 40.3359 31.9768 39.119 31.3284 38.1216C30.6801 37.1242 29.7566 36.3662 28.5581 35.8475C27.3792 35.3288 25.9548 35.0695 24.2847 35.0695H16.3863V47.9961ZM16.3863 24.7761H23.1058C24.5401 24.7761 25.8074 24.5467 26.9077 24.0878C28.008 23.629 28.8626 22.9707 29.4717 22.1129C30.1005 21.2352 30.4148 20.168 30.4148 18.9112C30.4148 17.0161 29.7468 15.5698 28.4107 14.5724C27.0747 13.555 25.385 13.0463 23.3416 13.0463H16.3863V24.7761Z" fill="#222220"/>
</svg>
