<svg width="157" height="157" viewBox="0 0 157 157" fill="none" xmlns="http://www.w3.org/2000/svg">
<rect x="3.5" y="3.5" width="150" height="150" fill="#FFF9EF" stroke="#222220" stroke-width="7"/>
<path d="M85.6172 115.282V54H124.056V68.4054H103.003V78.9382H122.463V93.3436H103.003V115.282H85.6172Z" fill="#EF4343"/>
<path d="M31 115.282V54H57.1709C61.7685 54 65.6293 54.6284 68.7533 55.8851C71.8969 57.1419 74.2645 58.9173 75.856 61.2114C77.4671 63.5055 78.2726 66.2085 78.2726 69.3205C78.2726 71.5746 77.7814 73.6293 76.7991 75.4846C75.8363 77.3398 74.4806 78.8958 72.732 80.1525C70.9833 81.3893 68.9399 82.2471 66.6018 82.7259V83.3243C69.1954 83.4241 71.5531 84.0923 73.6751 85.3292C75.797 86.546 77.4867 88.2317 78.7442 90.3861C80.0016 92.5206 80.6304 95.0341 80.6304 97.9266C80.6304 101.278 79.7659 104.26 78.0369 106.874C76.3275 109.487 73.8912 111.542 70.7279 113.038C67.5646 114.534 63.7922 115.282 59.4107 115.282H31ZM47.3863 101.996H55.0489C57.7996 101.996 59.8626 101.477 61.238 100.44C62.6133 99.3829 63.301 97.8269 63.301 95.7722C63.301 94.3359 62.9768 93.119 62.3284 92.1216C61.6801 91.1242 60.7566 90.3662 59.5581 89.8475C58.3792 89.3288 56.9548 89.0695 55.2847 89.0695H47.3863V101.996ZM47.3863 78.7761H54.1058C55.5401 78.7761 56.8074 78.5467 57.9077 78.0878C59.008 77.629 59.8626 76.9707 60.4717 76.1129C61.1005 75.2352 61.4148 74.168 61.4148 72.9112C61.4148 71.0161 60.7468 69.5698 59.4107 68.5724C58.0747 67.555 56.385 67.0463 54.3416 67.0463H47.3863V78.7761Z" fill="#222220"/>
</svg>
